<svg width="24" height="24" viewBox="0 0 24 24" fill="none" xmlns="http://www.w3.org/2000/svg">
<path d="M21.4975 4.66532C20.0468 2.78677 18.0715 1.38064 15.8215 0.624768C13.5716 -0.131107 11.148 -0.202775 8.85732 0.418829C6.56664 1.04043 4.51174 2.32739 2.95252 4.11693C1.39329 5.90647 0.399781 8.11821 0.097635 10.4724C-0.204511 12.8266 0.198281 15.2176 1.25507 17.3429C2.31186 19.4682 3.97517 21.2323 6.03464 22.4122C8.09412 23.5921 10.4572 24.1348 12.8252 23.9716C15.1931 23.8084 17.4594 22.9466 19.3375 21.4953C21.8553 19.5497 23.4973 16.6837 23.9024 13.5276C24.3074 10.3715 23.4424 7.18373 21.4975 4.66532V4.66532Z" fill="#FF6C37"/>
<path d="M16.0475 7.64532L10.9875 12.7453L9.5575 11.2753C14.5375 6.29532 15.0375 6.74532 16.0475 7.64532Z" fill="white"/>
<path d="M10.9875 12.8853C10.9427 12.8842 10.8999 12.8663 10.8675 12.8353L9.4275 11.3953C9.39511 11.3618 9.37701 11.3169 9.37701 11.2703C9.37701 11.2237 9.39511 11.1789 9.4275 11.1453C14.3375 6.23531 15.0075 6.46531 16.1675 7.51531C16.1869 7.53084 16.2024 7.55066 16.2128 7.57323C16.2233 7.59579 16.2283 7.62047 16.2275 7.64531C16.2312 7.66946 16.2286 7.69417 16.2198 7.71697C16.211 7.73978 16.1965 7.75989 16.1775 7.77531L11.1175 12.8353C11.0821 12.8678 11.0356 12.8857 10.9875 12.8853V12.8853ZM9.8075 11.2753L10.9875 12.4553L15.7875 7.65531C15.6218 7.44765 15.3853 7.30836 15.1233 7.26408C14.8614 7.21981 14.5923 7.27365 14.3675 7.41531C13.4975 7.80531 12.0975 8.99531 9.8075 11.2753Z" fill="#FF6C37"/>
<path d="M12.4375 14.1553L11.0575 12.7453L16.1175 7.74532C17.4775 9.07532 15.4575 11.2953 12.4375 14.1553Z" fill="white"/>
<path d="M12.4375 14.3353C12.3932 14.3318 12.3512 14.3143 12.3175 14.2853L10.9075 12.9053C10.8864 12.8541 10.8864 12.7966 10.9075 12.7453C10.8922 12.7033 10.8922 12.6573 10.9075 12.6153L15.9675 7.55533C16.0027 7.52228 16.0492 7.50389 16.0975 7.50389C16.1458 7.50389 16.1923 7.52228 16.2275 7.55533C16.3915 7.70611 16.521 7.89045 16.6073 8.0958C16.6935 8.30116 16.7346 8.5227 16.7275 8.74533C16.7275 10.0953 15.1875 11.7953 12.5675 14.2753C12.5325 14.3099 12.4865 14.3312 12.4375 14.3353V14.3353ZM11.3175 12.7453L12.4475 13.8753C14.4475 11.9853 16.3575 10.0353 16.3675 8.71533C16.3784 8.43544 16.2858 8.16134 16.1075 7.94533L11.3175 12.7453Z" fill="#FF6C37"/>
<path d="M9.5975 11.3053L10.5975 12.3053C10.6039 12.311 10.609 12.3179 10.6125 12.3256C10.616 12.3334 10.6178 12.3418 10.6178 12.3503C10.6178 12.3588 10.616 12.3673 10.6125 12.375C10.609 12.3828 10.6039 12.3897 10.5975 12.3953L8.4875 12.8453C8.44496 12.8544 8.40063 12.8493 8.36123 12.8309C8.32183 12.8125 8.2895 12.7817 8.26915 12.7433C8.2488 12.7048 8.24154 12.6608 8.24846 12.6179C8.25538 12.5749 8.27611 12.5354 8.3075 12.5053L9.5375 11.2853C9.5375 11.2853 9.5775 11.2853 9.5975 11.3053Z" fill="white"/>
<path d="M8.43751 13.0453C8.37085 13.0445 8.30551 13.0266 8.24774 12.9933C8.18997 12.9601 8.14169 12.9126 8.10751 12.8553C8.069 12.7828 8.05501 12.6998 8.06763 12.6187C8.08025 12.5376 8.1188 12.4627 8.17751 12.4053L9.39751 11.1753C9.44151 11.136 9.49847 11.1142 9.55751 11.1142C9.61654 11.1142 9.6735 11.136 9.71751 11.1753L10.7175 12.1753C10.7467 12.203 10.7677 12.2382 10.7782 12.2769C10.7888 12.3157 10.7886 12.3567 10.7775 12.3953C10.766 12.4347 10.7442 12.4704 10.7143 12.4985C10.6844 12.5266 10.6475 12.5463 10.6075 12.5553L8.49751 13.0053L8.43751 13.0453ZM9.55751 11.5253L8.42751 12.6553L10.2975 12.2553L9.55751 11.5253Z" fill="#FF6C37"/>
<path d="M18.7375 4.83532C18.4771 4.58395 18.1515 4.41047 17.7976 4.33448C17.4437 4.25849 17.0756 4.28303 16.7349 4.40532C16.3942 4.52761 16.0945 4.74278 15.8697 5.0265C15.6449 5.31021 15.504 5.65116 15.4629 6.01079C15.4218 6.37041 15.4821 6.73438 15.637 7.06152C15.7919 7.38867 16.0352 7.66595 16.3395 7.86201C16.6438 8.05808 16.9968 8.1651 17.3588 8.17099C17.7207 8.17687 18.077 8.08139 18.3875 7.89532L17.0275 6.53532L18.7375 4.83532Z" fill="white"/>
<path d="M17.3875 8.35532C16.9717 8.34985 16.5667 8.2222 16.2229 7.98827C15.879 7.75434 15.6116 7.42446 15.4539 7.03969C15.2961 6.65491 15.255 6.23224 15.3357 5.82428C15.4163 5.41633 15.6152 5.0411 15.9075 4.74532C16.3077 4.35201 16.8464 4.13162 17.4075 4.13162C17.9686 4.13162 18.5073 4.35201 18.9075 4.74532C18.9265 4.76128 18.9417 4.78118 18.9521 4.80363C18.9626 4.82609 18.968 4.85056 18.968 4.87532C18.968 4.90008 18.9626 4.92455 18.9521 4.947C18.9417 4.96946 18.9265 4.98936 18.9075 5.00532L17.2875 6.53532L18.5175 7.74532C18.5374 7.7644 18.5523 7.78802 18.561 7.81415C18.5697 7.84028 18.572 7.86814 18.5675 7.89532C18.5645 7.92153 18.5558 7.94675 18.542 7.96922C18.5282 7.99168 18.5096 8.01084 18.4875 8.02532C18.1571 8.23211 17.7772 8.3461 17.3875 8.35532ZM17.3875 4.47532C17.0407 4.47709 16.7022 4.58127 16.4144 4.77478C16.1266 4.96829 15.9024 5.2425 15.77 5.563C15.6375 5.88349 15.6027 6.23598 15.6698 6.5762C15.737 6.91642 15.9032 7.22922 16.1475 7.47532C16.396 7.72514 16.7142 7.89412 17.0603 7.96014C17.4065 8.02616 17.7645 7.98614 18.0875 7.84532L16.9075 6.66532C16.8881 6.6498 16.8726 6.62997 16.8622 6.60741C16.8517 6.58484 16.8467 6.56016 16.8475 6.53532C16.8482 6.51217 16.854 6.48945 16.8643 6.46873C16.8747 6.44801 16.8894 6.42979 16.9075 6.41532L18.4675 4.84532C18.1575 4.60741 17.7782 4.47747 17.3875 4.47532V4.47532Z" fill="#FF6C37"/>
<path d="M18.7675 4.86533L17.0575 6.56533L18.4175 7.92533C18.5544 7.84679 18.6819 7.75284 18.7975 7.64533C19.154 7.26852 19.3501 6.76795 19.3445 6.24926C19.3389 5.73058 19.132 5.23435 18.7675 4.86533Z" fill="white"/>
<path d="M18.3875 8.07533C18.365 8.07653 18.3426 8.07266 18.3218 8.064C18.301 8.05535 18.2825 8.04213 18.2675 8.02533L16.9075 6.66533C16.8881 6.64981 16.8726 6.62998 16.8621 6.60741C16.8517 6.58485 16.8467 6.56017 16.8475 6.53533C16.8482 6.51217 16.8539 6.48945 16.8643 6.46873C16.8747 6.44802 16.8894 6.42979 16.9075 6.41533L18.6075 4.74533C18.6239 4.72057 18.6462 4.70027 18.6724 4.68622C18.6985 4.67218 18.7278 4.66483 18.7575 4.66483C18.7872 4.66483 18.8164 4.67218 18.8426 4.68622C18.8688 4.70027 18.8911 4.72057 18.9075 4.74533V4.74533C19.1071 4.94085 19.2656 5.17424 19.3738 5.4318C19.482 5.68937 19.5378 5.96594 19.5378 6.24533C19.5378 6.52471 19.482 6.80128 19.3738 7.05885C19.2656 7.31642 19.1071 7.5498 18.9075 7.74533C18.7899 7.87032 18.6552 7.97805 18.5075 8.06533C18.4703 8.08416 18.4273 8.08775 18.3875 8.07533V8.07533ZM17.2875 6.53533L18.4175 7.66533C18.4952 7.61084 18.5687 7.55068 18.6375 7.48533C18.9696 7.15403 19.1567 6.70444 19.1575 6.23533C19.1581 5.81559 19.0051 5.41013 18.7275 5.09533L17.2875 6.53533Z" fill="#FF6C37"/>
<path d="M16.2575 7.85533C16.1221 7.72806 15.9433 7.65721 15.7575 7.65721C15.5717 7.65721 15.3929 7.72806 15.2575 7.85533L10.7275 12.3753L11.4775 13.1353L16.2675 8.93533C16.3407 8.86543 16.3988 8.78125 16.4382 8.688C16.4776 8.59474 16.4975 8.49439 16.4965 8.39316C16.4956 8.29193 16.4739 8.19197 16.4328 8.09946C16.3917 8.00695 16.332 7.92386 16.2575 7.85533V7.85533Z" fill="white"/>
<path d="M11.4375 13.3153C11.3927 13.3142 11.3499 13.2964 11.3175 13.2653L10.5575 12.5053C10.5251 12.4718 10.507 12.427 10.507 12.3803C10.507 12.3337 10.5251 12.2889 10.5575 12.2553L15.0875 7.74532C15.26 7.57311 15.4938 7.47639 15.7375 7.47639C15.9812 7.47639 16.215 7.57311 16.3875 7.74532C16.4766 7.83417 16.5466 7.94036 16.593 8.05732C16.6394 8.17429 16.6614 8.29953 16.6575 8.42532C16.6524 8.55043 16.6223 8.67326 16.5691 8.7866C16.5159 8.89994 16.4405 9.0015 16.3475 9.08532L11.5575 13.2853C11.5227 13.31 11.4798 13.3207 11.4375 13.3153V13.3153ZM10.9075 12.3753L11.4075 12.8853L16.1075 8.79532C16.1652 8.74545 16.2118 8.68415 16.2445 8.61529C16.2772 8.54643 16.2953 8.47152 16.2975 8.39532C16.3005 8.31875 16.2868 8.24245 16.2575 8.17167C16.2281 8.10088 16.1838 8.03731 16.1275 7.98532C16.0226 7.8809 15.8805 7.82228 15.7325 7.82228C15.5845 7.82228 15.4424 7.8809 15.3375 7.98532L10.9075 12.3753Z" fill="#FF6C37"/>
<path d="M7.21751 17.5253C7.20453 17.5426 7.19751 17.5637 7.19751 17.5853C7.19751 17.607 7.20453 17.628 7.21751 17.6453L7.41751 18.5153C7.42588 18.566 7.41844 18.618 7.39619 18.6643C7.37394 18.7106 7.33797 18.749 7.29317 18.7741C7.24836 18.7992 7.19691 18.8099 7.1458 18.8048C7.09469 18.7997 7.0464 18.7789 7.00751 18.7453L5.63751 17.4253L9.90751 13.1253H11.3875L12.3875 14.1253C10.8275 15.4894 9.08802 16.6334 7.21751 17.5253V17.5253Z" fill="white"/>
<path d="M7.12754 18.9953C7.01432 18.9932 6.90652 18.9465 6.82754 18.8653L5.51754 17.5553C5.49813 17.5398 5.4826 17.52 5.47218 17.4974C5.46177 17.4748 5.45676 17.4502 5.45754 17.4253C5.45826 17.4022 5.46399 17.3794 5.47435 17.3587C5.48471 17.338 5.49945 17.3198 5.51754 17.3053L9.81754 12.9953C9.84165 12.9698 9.87309 12.9523 9.90754 12.9453H11.3975C11.4364 12.9316 11.4787 12.9316 11.5175 12.9453L12.5175 13.9453C12.5366 13.9629 12.5511 13.9848 12.5598 14.0092C12.5685 14.0335 12.5712 14.0597 12.5675 14.0853C12.5683 14.1102 12.5633 14.1348 12.5529 14.1574C12.5425 14.18 12.5269 14.1998 12.5075 14.2153L12.4275 14.2853C10.8611 15.5912 9.1378 16.6964 7.29754 17.5753L7.48754 18.3853C7.5025 18.4478 7.50325 18.5129 7.48974 18.5758C7.47623 18.6386 7.44879 18.6977 7.40946 18.7485C7.37012 18.7994 7.31988 18.8407 7.26244 18.8696C7.205 18.8985 7.14181 18.9141 7.07754 18.9153L7.12754 18.9953ZM5.90754 17.4253L7.08754 18.6153C7.09854 18.6252 7.11278 18.6306 7.12754 18.6306C7.1423 18.6306 7.15654 18.6252 7.16754 18.6153C7.17486 18.6051 7.1788 18.5929 7.1788 18.5803C7.1788 18.5678 7.17486 18.5555 7.16754 18.5453L6.96754 17.6753C6.95195 17.6129 6.95835 17.547 6.98567 17.4887C7.01299 17.4304 7.05956 17.3833 7.11754 17.3553C8.90834 16.4882 10.5873 15.407 12.1175 14.1353L11.2975 13.3153H9.95754L5.90754 17.4253Z" fill="#FF6C37"/>
<path d="M4.60752 18.4553L5.60752 17.4553L7.14752 18.9953L4.69752 18.8253C4.6553 18.8223 4.61513 18.8059 4.58282 18.7785C4.5505 18.7512 4.5277 18.7143 4.51769 18.6731C4.50768 18.632 4.51099 18.5887 4.52713 18.5496C4.54328 18.5105 4.57142 18.4774 4.60752 18.4553V18.4553Z" fill="white"/>
<path d="M4.73751 18.9753L7.17751 19.1453C7.2191 19.131 7.25444 19.1028 7.27751 19.0653C7.29865 19.0363 7.31003 19.0012 7.31003 18.9653C7.31003 18.9294 7.29865 18.8944 7.27751 18.8653L5.74751 17.3353C5.71396 17.3029 5.66914 17.2848 5.62251 17.2848C5.57588 17.2848 5.53107 17.3029 5.49751 17.3353L4.49751 18.3353C4.44842 18.387 4.41486 18.4515 4.40067 18.5213C4.38648 18.5912 4.39223 18.6637 4.41726 18.7304C4.44229 18.7972 4.4856 18.8555 4.54223 18.8988C4.59886 18.9421 4.66653 18.9686 4.73751 18.9753Z" fill="#FF6C37"/>
<path d="M11.5275 13.2453L9.50751 13.5553L10.6775 12.3953L11.5275 13.2453Z" fill="white"/>
<path d="M9.50753 13.7453C9.47396 13.7463 9.44085 13.7374 9.41238 13.7196C9.3839 13.7018 9.36134 13.6759 9.34752 13.6453C9.32639 13.6163 9.315 13.5813 9.315 13.5453C9.315 13.5094 9.32639 13.4744 9.34752 13.4453L10.5075 12.2753C10.5427 12.2423 10.5892 12.2239 10.6375 12.2239C10.6858 12.2239 10.7323 12.2423 10.7675 12.2753L11.6175 13.1253C11.6344 13.1523 11.6433 13.1835 11.6433 13.2153C11.6433 13.2471 11.6344 13.2783 11.6175 13.3053C11.6099 13.3385 11.5925 13.3687 11.5675 13.3919C11.5426 13.415 11.5112 13.4302 11.4775 13.4353L9.47752 13.7453H9.50753ZM10.6775 12.6553L10.0275 13.3053L11.1475 13.1353L10.6775 12.6553Z" fill="#FF6C37"/>
<path d="M11.5275 13.2453L10.1175 13.4253C10.0798 13.4339 10.0403 13.4301 10.0049 13.4145C9.96944 13.3989 9.94 13.3722 9.92092 13.3386C9.90183 13.3049 9.89411 13.266 9.89891 13.2275C9.9037 13.1891 9.92075 13.1533 9.94752 13.1253L10.6775 12.3953L11.5275 13.2453Z" fill="white"/>
<path d="M10.0775 13.6153C10.0121 13.6147 9.94807 13.5969 9.89186 13.5635C9.83565 13.5301 9.78929 13.4824 9.75749 13.4253C9.71933 13.3569 9.70454 13.2779 9.71537 13.2003C9.7262 13.1227 9.76205 13.0507 9.81749 12.9953L10.5475 12.2653C10.5827 12.2323 10.6292 12.2139 10.6775 12.2139C10.7258 12.2139 10.7723 12.2323 10.8075 12.2653L11.6575 13.1153C11.6827 13.1393 11.7005 13.1701 11.7086 13.2039C11.7167 13.2378 11.7148 13.2732 11.7032 13.3061C11.6915 13.3389 11.6706 13.3676 11.643 13.3888C11.6154 13.4099 11.5822 13.4226 11.5475 13.4253L10.1475 13.6053L10.0775 13.6153ZM10.0775 13.2453L11.1375 13.1153L10.6675 12.6453L10.0675 13.2453H10.0775Z" fill="#FF6C37"/>
<path d="M18.7775 6.01533C18.7587 5.9838 18.729 5.96028 18.6939 5.94922C18.6589 5.93816 18.6211 5.94034 18.5875 5.95533C18.571 5.96377 18.5564 5.97541 18.5444 5.98957C18.5324 6.00372 18.5234 6.02011 18.5178 6.03779C18.5123 6.05546 18.5102 6.07407 18.5119 6.09253C18.5136 6.11099 18.5189 6.12894 18.5275 6.14533C18.5619 6.21756 18.5754 6.29795 18.5666 6.37744C18.5577 6.45694 18.5269 6.53239 18.4775 6.59533C18.4645 6.60749 18.4541 6.6222 18.447 6.63854C18.4399 6.65488 18.4363 6.67251 18.4363 6.69033C18.4363 6.70815 18.4399 6.72577 18.447 6.74211C18.4541 6.75846 18.4645 6.77317 18.4775 6.78533C18.5033 6.79537 18.5318 6.79537 18.5575 6.78533C18.5808 6.79131 18.6052 6.79075 18.6282 6.78369C18.6511 6.77663 18.6717 6.76335 18.6875 6.74533C18.7699 6.64452 18.822 6.52249 18.8379 6.39332C18.8538 6.26415 18.8329 6.13311 18.7775 6.01533V6.01533Z" fill="#FF6C37"/>
</svg>
